<?xml version="1.0" encoding="UTF-8" standalone="no"?>
<!DOCTYPE svg PUBLIC "-//W3C//DTD SVG 1.1//EN" "http://www.w3.org/Graphics/SVG/1.1/DTD/svg11.dtd">
<svg width="100%" height="100%" viewBox="0 0 75 75" version="1.1" xmlns="http://www.w3.org/2000/svg" xmlns:xlink="http://www.w3.org/1999/xlink" xml:space="preserve" xmlns:serif="http://www.serif.com/" style="fill-rule:evenodd;clip-rule:evenodd;stroke-linecap:round;stroke-miterlimit:10;">
    <g transform="matrix(1,0,0,1,10,10)">
        <path d="M21.66,24L2.34,24C1.048,24 0,22.952 0,21.66L0,2.34C0,1.048 1.048,0 2.34,0L21.66,0C22.952,0 24,1.048 24,2.34L24,21.66C24,22.952 22.952,24 21.66,24Z" style="fill:rgb(239,206,74);fill-rule:nonzero;"/>
    </g>
    <g transform="matrix(1,0,0,1,10,10)">
        <path d="M51.66,24L32.34,24C31.048,24 30,22.952 30,21.66L30,2.34C30,1.048 31.048,0 32.34,0L51.66,0C52.952,0 54,1.048 54,2.34L54,21.66C54,22.952 52.952,24 51.66,24Z" style="fill:rgb(127,171,218);fill-rule:nonzero;"/>
    </g>
    <g transform="matrix(1,0,0,1,10,10)">
        <path d="M21.66,54L2.34,54C1.048,54 0,52.952 0,51.66L0,32.34C0,31.048 1.048,30 2.34,30L21.66,30C22.952,30 24,31.048 24,32.34L24,51.66C24,52.952 22.952,54 21.66,54Z" style="fill:rgb(215,90,74);fill-rule:nonzero;"/>
    </g>
    <g transform="matrix(1,0,0,1,10,10)">
        <path d="M42,30L42,54" style="fill:none;fill-rule:nonzero;stroke:rgb(35,162,77);stroke-width:2px;"/>
    </g>
    <g transform="matrix(1,0,0,1,10,10)">
        <path d="M30,42L54,42" style="fill:none;fill-rule:nonzero;stroke:rgb(35,162,77);stroke-width:2px;"/>
    </g>
</svg>
